<?xml version="1.0" ?><svg xmlns="http://www.w3.org/2000/svg" viewBox="0 0 512 512">
	<path d="M 266 46 266 467 267 468 475 468 475 46 Z" fill="#333333" stroke="#ffffff" stroke-width="8" stroke-linejoin="round" stroke-linecap="round"/>
	<path d="M 147 46 147 287 148 288 148 289 149 290 149 291 150 292 150 293 151 294 151 295 152 296 152 298 153 299 153 300 154 301 154 302 155 303 155 304 156 305 156 306 157 307 157 308 158 309 158 310 159 311 159 312 160 313 160 314 161 315 161 316 162 317 162 318 163 319 163 320 164 321 164 322 165 323 165 324 166 325 166 326 167 327 167 328 168 329 168 330 169 331 169 332 170 333 170 334 171 335 171 336 172 337 172 338 173 339 173 340 174 341 174 342 175 343 175 344 176 345 176 346 177 347 177 348 178 349 178 350 179 351 179 352 180 353 180 354 181 355 181 356 182 357 182 358 183 359 183 360 184 361 184 362 185 363 185 364 186 365 186 366 187 367 187 368 188 369 188 370 189 371 189 372 190 373 190 374 191 375 191 376 192 377 192 378 193 379 193 380 194 381 194 382 195 383 195 384 196 385 196 386 197 387 197 388 198 389 198 390 199 391 199 392 200 393 200 394 201 395 201 396 202 397 202 398 203 399 203 400 204 401 204 402 205 403 205 404 206 405 206 407 208 409 208 410 209 411 209 413 210 414 210 415 211 416 211 417 212 418 212 419 213 420 213 421 214 422 214 423 215 424 215 425 216 426 216 427 217 428 217 429 218 430 218 431 219 432 219 433 220 434 220 435 221 436 221 437 222 438 222 439 223 440 223 441 224 442 224 443 225 444 225 445 226 446 226 447 227 448 227 449 228 450 228 451 229 452 229 453 230 454 230 455 231 456 231 457 232 458 232 459 233 460 233 461 234 462 234 463 235 464 235 465 236 466 236 467 237 467 237 46 Z" fill="#333333" stroke="#ffffff" stroke-width="8" stroke-linejoin="round" stroke-linecap="round"/>
	<path d="M 28 46 28 47 29 48 29 49 30 50 30 51 31 52 31 53 32 54 32 56 33 57 33 58 34 59 34 60 35 61 35 62 36 63 36 64 37 65 37 66 38 67 38 68 39 69 39 70 40 71 40 72 41 73 41 74 42 75 42 76 43 77 43 78 44 79 44 80 45 81 45 82 46 83 46 84 47 85 47 86 48 87 48 88 49 89 49 90 50 91 50 92 51 93 51 94 52 95 52 96 53 97 53 98 54 99 54 100 55 101 55 102 56 103 56 104 57 105 57 106 58 107 58 108 59 109 59 110 60 111 60 112 61 113 61 114 62 115 62 116 63 117 63 118 64 119 64 120 65 121 65 122 66 123 66 124 67 125 67 126 68 127 68 128 69 129 69 130 70 131 70 132 71 133 71 134 72 135 72 136 73 137 73 138 74 139 74 140 75 141 75 142 76 143 76 144 77 145 77 146 78 147 78 148 79 149 79 150 80 151 80 152 81 153 81 154 82 155 82 156 83 157 83 158 84 159 84 160 85 161 85 162 86 163 86 164 87 165 87 166 88 167 88 168 89 169 89 170 90 171 90 172 91 173 91 174 92 175 92 176 93 177 93 179 94 180 94 181 95 182 95 183 96 184 96 185 97 186 97 187 98 188 98 189 99 190 99 191 100 192 100 193 101 194 101 195 102 196 102 197 103 198 103 199 104 200 104 201 105 202 105 203 106 204 106 205 107 206 107 207 108 208 108 209 109 210 109 211 110 212 110 213 111 214 111 215 112 216 112 217 113 218 113 219 114 220 114 221 115 222 115 223 116 224 116 225 117 226 117 227 118 228 118 46 Z" fill="#333333" stroke="#ffffff" stroke-width="8" stroke-linejoin="round" stroke-linecap="round"/>
</svg>